<svg width="261" height="85" viewBox="0 0 261 85" fill="none" xmlns="http://www.w3.org/2000/svg">
<path d="M7.26848 0.153402C6.11272 0.590023 4.77717 2.85018 4.05803 5.6497C3.49299 7.75575 3.67277 12.0706 4.36623 13.9712C5.08537 15.9488 5.95862 17.4385 6.36955 17.4385C6.57502 17.4385 6.90891 17.1046 7.14006 16.6937C7.93626 15.127 10.1194 12.8154 12.02 11.5569C14.3315 10.0159 16.7971 9.21972 19.8021 9.01425C20.9579 8.96288 21.9082 8.7831 21.9082 8.68036C21.9082 8.01259 20.5212 6.03495 18.9545 4.44257C16.6173 2.10536 13.7921 0.641392 10.7871 0.256136C8.62971 -0.0520668 7.88489 -0.0777512 7.26848 0.153402Z" fill="#F7A121"/>
<path d="M77.5133 0.59054C75.2274 1.15558 72.4536 2.61955 70.8099 4.16056C69.012 5.83 67.7535 7.49943 67.959 8.01311C68.036 8.24426 68.7038 8.44973 69.7825 8.55246C71.7345 8.75793 74.5853 9.65686 76.152 10.5815C78.4379 11.917 80.6724 14.3056 81.8795 16.6685C82.727 18.3379 83.1637 18.2095 84.3451 15.8723C85.3468 13.8433 86.1173 10.8383 86.1173 8.86067C86.1173 5.80432 84.2424 0.718958 82.9582 0.385071C82.0079 0.128235 78.8745 0.256653 77.5133 0.59054Z" fill="#F7A121"/>
<path d="M22.165 24.0395C19.648 24.4761 15.7441 26.1969 12.662 28.2516C8.88654 30.7172 3.10772 36.008 0.642091 39.2185L0 40.0403L0.719142 41.0677C2.49131 43.636 10.5046 50.7504 13.7664 52.6767C17.2851 54.7314 21.2404 56.144 23.8344 56.2724C26.7623 56.4008 26.8137 56.3751 28.0722 54.5002C29.305 52.651 33.9538 47.7968 35.6489 46.564C36.2139 46.153 36.7276 45.7678 36.8046 45.6651C36.8817 45.588 37.6522 45.0743 38.5255 44.535C39.4244 43.9956 40.2719 43.4049 40.426 43.2251C40.8627 42.6858 40.7599 37.8829 40.2719 36.0594C38.32 28.7396 31.6936 23.7313 24.2197 23.8854C23.4492 23.911 22.5245 23.9881 22.165 24.0395Z" fill="#F7A121"/>
<path d="M62.2317 24.142C54.2441 25.683 48.3625 33.234 48.9789 41.1959C49.133 43.2249 48.9019 42.9681 52.5489 45.4851C55.7851 47.7452 59.1753 51.1098 61.718 54.5771C62.7453 56.0153 62.9765 56.1951 63.9781 56.3235C67.5995 56.8115 73.3527 54.6798 78.4124 50.9557C80.3386 49.5431 80.5955 49.3376 82.2392 47.8993C86.1945 44.4577 89.4563 40.8877 89.4563 40.0145C89.4563 39.1926 84.371 33.9274 80.8523 31.0766C77.5648 28.4311 73.6609 25.9912 71.1953 25.0666C68.3444 23.9879 64.8771 23.6283 62.2317 24.142Z" fill="#F7A121"/>
<path d="M43.8161 53.5499C42.686 54.115 40.2717 56.5806 39.7324 57.7107C38.6023 60.1249 38.2427 63.284 39.0646 64.0032C39.681 64.5682 41.6073 65.3644 43.3024 65.724C44.4325 65.9808 45.0746 65.9808 46.2817 65.7496C48.5162 65.313 50.6222 64.3114 50.9818 63.5409C51.3927 62.6162 50.9048 59.6626 50.0572 57.9161C49.261 56.2724 47.4631 54.3718 46.0505 53.6527C44.8434 53.0363 44.8691 53.0363 43.8161 53.5499Z" fill="#F7A121"/>
<path d="M115.904 26.6991C117.173 26.6991 117.934 25.9379 117.934 25.1767C117.934 22.6393 104.232 22.6393 104.232 11.4748C104.232 5.63887 109.814 0.0566406 118.695 0.0566406C127.83 0.0566406 132.397 5.63887 132.397 5.63887L127.576 13.251C127.576 13.251 124.531 10.4599 120.979 10.4599C119.71 10.4599 118.949 11.2211 118.949 11.9823C118.949 14.5197 132.651 14.5197 132.651 25.6842C132.651 31.5201 127.069 37.1024 118.188 37.1024C107.023 37.1024 102.456 31.0127 102.456 31.0127L107.277 23.4005C107.277 23.4005 110.829 26.6991 115.904 26.6991Z" fill="#292929"/>
<path d="M171.727 8.68373C176.801 8.68373 180.861 12.7435 180.861 22.1318V36.3412H168.682V22.1318C168.682 20.1019 167.667 19.087 166.652 19.087C165.637 19.087 164.622 20.1019 164.622 22.1318V36.3412H152.442V22.1318C152.442 20.1019 151.427 19.087 150.413 19.087C149.398 19.087 148.383 20.1019 148.383 22.1318V36.3412H136.203V9.44494H147.875L148.89 12.4898C148.89 12.4898 150.92 8.68373 155.995 8.68373C161.07 8.68373 163.607 13.5047 163.607 13.5047C163.607 13.5047 166.652 8.68373 171.727 8.68373Z" fill="#292929"/>
<path d="M197.34 8.68373C205.967 8.68373 212.311 15.0272 212.311 22.893C212.311 27.2573 212.311 32.3828 212.311 36.3412H200.639L199.624 33.2963C199.624 33.2963 197.594 37.1024 193.027 37.1024C187.444 37.1024 183.892 33.55 183.892 28.729C183.892 23.908 187.444 20.3557 196.072 20.3557H200.131C200.131 20.3557 199.624 17.5646 195.564 17.5646C193.027 17.5646 190.997 19.5945 190.997 19.5945L186.683 12.7435C186.683 12.7435 190.489 8.68373 197.34 8.68373ZM197.594 28.9828C198.863 28.9828 200.131 27.7141 200.131 24.6692C197.34 24.6692 196.072 25.9379 196.072 27.4603C196.072 28.2215 196.833 28.9828 197.594 28.9828Z" fill="#292929"/>
<path d="M229.571 12.4898C229.571 12.4898 231.601 8.68373 235.661 8.68373C237.69 8.68373 239.213 9.44494 239.213 9.44494L237.183 20.6094C237.183 20.6094 235.153 19.5945 233.631 19.5945C231.093 19.5945 229.063 21.6244 229.063 25.1767V36.3412H216.884V9.44494H228.556L229.571 12.4898Z" fill="#292929"/>
<path d="M243.297 19.5945H239.744V9.44494H243.297V0.817853H255.476V9.44494H260.043V19.5945H255.476V23.908C255.476 25.9379 256.491 26.9529 258.013 26.9529C259.028 26.9529 260.043 26.6991 260.043 26.6991V36.8486C260.043 36.8486 258.013 37.3561 255.476 37.3561C247.864 37.3561 243.297 32.7888 243.297 23.908V19.5945Z" fill="#292929"/>
<path d="M121.233 68.798V65.7531C121.233 65.7531 119.203 69.5592 114.128 69.5592C108.546 69.5592 103.471 64.4845 103.471 55.8574C103.471 47.2303 108.546 42.1555 114.128 42.1555C119.203 42.1555 121.233 45.9616 121.233 45.9616L122.248 42.9167H133.412V68.798C133.412 77.1713 126.561 84.0223 117.934 84.0223C110.576 84.0223 106.516 79.7087 106.516 79.7087L111.591 71.5891C111.591 71.5891 113.621 73.619 116.158 73.619C119.203 73.619 121.233 71.5891 121.233 68.798ZM116.158 55.8574C116.158 57.8873 117.427 59.156 118.949 59.156C120.471 59.156 121.74 57.8873 121.74 55.8574C121.74 53.8275 120.471 52.5588 118.949 52.5588C117.427 52.5588 116.158 53.8275 116.158 55.8574Z" fill="#292929"/>
<path d="M147.617 70.5742C142.543 70.5742 138.483 66.5144 138.483 57.1261V42.9167H150.662V57.1261C150.662 59.156 151.677 60.1709 152.692 60.1709C153.707 60.1709 154.722 59.156 154.722 57.1261V42.9167H166.902V69.813H155.23L154.215 66.7681C154.215 66.7681 152.185 70.5742 147.617 70.5742Z" fill="#292929"/>
<path d="M184.671 45.9616C184.671 45.9616 186.701 42.1555 190.761 42.1555C192.791 42.1555 194.313 42.9167 194.313 42.9167L192.283 54.0812C192.283 54.0812 190.253 53.0662 188.731 53.0662C186.194 53.0662 184.164 55.0962 184.164 58.6485V69.813H171.984V42.9167H183.656L184.671 45.9616Z" fill="#292929"/>
<path d="M205.501 70.5742C200.427 70.5742 196.367 66.5144 196.367 57.1261V42.9167H208.546V57.1261C208.546 59.156 209.561 60.1709 210.576 60.1709C211.591 60.1709 212.606 59.156 212.606 57.1261V42.9167H224.786V69.813H213.114L212.099 66.7681C212.099 66.7681 210.069 70.5742 205.501 70.5742Z" fill="#292929"/>
</svg>
