<svg width="39" height="38" viewBox="0 0 39 38" fill="none" xmlns="http://www.w3.org/2000/svg">
<path d="M5.25 13.084C5.25 11.9794 6.14543 11.084 7.25 11.084H11.375C12.0045 11.084 12.5973 10.7876 12.975 10.284L15.3375 7.13398C15.7152 6.63037 16.308 6.33398 16.9375 6.33398H22.0625C22.692 6.33398 23.2848 6.63037 23.6625 7.13398L26.025 10.284C26.4027 10.7876 26.9955 11.084 27.625 11.084H31.75C32.8546 11.084 33.75 11.9794 33.75 13.084V29.6673C33.75 30.7719 32.8546 31.6673 31.75 31.6673H7.25C6.14543 31.6673 5.25 30.7719 5.25 29.6673V13.084Z" stroke="white" stroke-width="2" stroke-linecap="round" stroke-linejoin="round"/>
<circle cx="19.4998" cy="20.5833" r="6.33333" stroke="white" stroke-width="2" stroke-linecap="round" stroke-linejoin="round"/>
</svg>
