<svg width="26" height="26" viewBox="0 0 26 26" fill="none" xmlns="http://www.w3.org/2000/svg">
<path d="M12.1156 3.67634C12.4908 2.96519 13.5092 2.96519 13.8844 3.67634L16.1327 7.93754C16.2774 8.21178 16.5411 8.40339 16.8466 8.45625L21.594 9.27767C22.3863 9.41476 22.701 10.3834 22.1406 10.96L18.7827 14.415C18.5666 14.6373 18.4659 14.9474 18.51 15.2543L19.1958 20.0231C19.3103 20.819 18.4863 21.4177 17.7648 21.0629L13.4412 18.937C13.163 18.8001 12.837 18.8001 12.5588 18.937L8.23522 21.0629C7.51368 21.4177 6.6897 20.819 6.80416 20.0231L7.48996 15.2543C7.5341 14.9474 7.43337 14.6373 7.21726 14.415L3.85936 10.96C3.29897 10.3834 3.6137 9.41476 4.40598 9.27767L9.15336 8.45625C9.4589 8.40339 9.72262 8.21178 9.86732 7.93754L12.1156 3.67634Z" fill="#F7A121" stroke="#F7A121" stroke-width="2" stroke-linecap="round" stroke-linejoin="round"/>
</svg>
