<svg width="439" height="474" viewBox="0 0 439 474" fill="none" xmlns="http://www.w3.org/2000/svg">
<g clip-path="url(#clip0_619_35258)">
<path opacity="0.6" d="M15.1004 209.7C15.1004 209.7 6.70038 80.9001 128.6 20.6001C250.5 -39.6999 463.8 34.4001 416.6 255.3C377.6 437.7 173.6 417.5 99.5004 369.8C47.0004 336 12.0004 254.6 15.1004 209.7Z" fill="#FDDEC0"/>
<path d="M160 317.5C160 317.5 165.3 413.5 178.6 473.8H231.3L224.3 388.9H235.2L265 473.8H317.2C317.2 473.8 283.4 341.9 278.9 311.1C274.4 280.2 160 317.5 160 317.5Z" fill="#765E69"/>
<path opacity="0.3" d="M284.2 339.3C281.8 328.1 279.9 318.1 278.9 311C274.4 280.2 160 317.5 160 317.5C160 317.5 160.5 325.3 161.5 337.2C171.5 340.1 212 354.8 284.2 339.3Z" fill="#352C38"/>
<path opacity="0.3" d="M226 405.9L224.3 389C221.9 388.9 219.5 388.8 217.1 388.7C206.5 388.2 196.1 387 185.8 385.1C196.3 395.7 211.1 401.8 226 405.9Z" fill="#352C38"/>
<path d="M278.1 212.702C278.1 212.702 290.1 298.302 307.5 295.902C350.3 290.002 400.3 208.602 382.8 206.902C374.9 206.102 327.9 242.102 327.9 242.102C327.9 242.102 312.1 156.502 292.7 159.402C273.4 162.302 278.1 212.702 278.1 212.702Z" fill="#FFAC9D"/>
<path d="M301.3 235.402C295.7 238.202 289.8 240.202 283.9 241.402C280.3 225.602 278.2 212.702 278.2 212.702C278.2 212.702 273.5 162.302 292.9 159.402C305.9 157.402 317.4 195.602 323.4 220.702C316.5 226.402 309.2 231.502 301.3 235.402Z" fill="#F19C7C"/>
<path d="M372.5 213.1C372.5 213.1 377.9 205.7 386.5 206.4C395.1 207.1 403.2 209.8 403.2 209.8C403.2 209.8 417.6 207.2 418.7 210.1C419.8 213 406.7 215.9 406.7 215.9H401.3L400.5 215.2C400.5 215.2 413.8 220 418.7 222.6C418.7 222.6 429.1 214.3 435.3 215.8C435.3 215.8 427.4 224.4 424.6 225.9C421.8 227.4 423.9 224.1 423.9 224.1C423.9 224.1 432.9 216.6 438 220.3L427.7 227.3L432.9 221.8C432.9 221.8 436.8 220.4 437.3 224.1C437.3 224.1 419.1 234.9 415.8 234.3C412.6 233.7 388.5 232.7 376.4 227.7C364.3 222.7 365.4 217.7 372.5 213.1Z" fill="#FFAC9D"/>
<path d="M406.7 215.801H401.6C398.6 211.701 392.5 206.201 381.6 206.801C383.1 206.401 384.8 206.201 386.6 206.301C395.2 207.001 403.3 209.701 403.3 209.701C403.3 209.701 417.7 207.101 418.8 210.001C419.7 212.901 406.7 215.801 406.7 215.801Z" fill="#F19C7C"/>
<path d="M413.4 227.8C414.7 227.2 416 226.8 417.4 226.3C418.7 225.8 420.1 225.4 421.5 225.1C422.9 224.8 424.3 224.5 425.7 224.4C426.4 224.3 427.2 224.3 427.9 224.5C428.3 224.6 428.7 224.7 429 224.9C429.4 225.1 429.7 225.4 429.9 225.8L430 226.1L429.7 226.3C427.4 227.7 425 229 422.6 230.2C420.2 231.4 417.8 232.6 415.2 233.5C414.6 233.7 413.9 233.9 413.2 234.1C412.9 234.2 412.5 234.3 412.2 234.3C411.9 234.3 411.5 234.4 411.2 234.4C409.8 234.4 408.5 234.3 407.1 234.1C405.8 233.9 404.4 233.7 403.1 233.4C401.8 233.1 400.5 232.8 399.2 232.4C401.8 232.9 404.5 233.3 407.2 233.5C408.5 233.6 409.9 233.7 411.2 233.6C411.5 233.6 411.9 233.5 412.2 233.5C412.5 233.5 412.8 233.4 413.1 233.3C413.7 233.1 414.4 232.9 415 232.7C417.5 231.8 419.9 230.5 422.3 229.3C424.7 228.1 427.1 226.8 429.4 225.5L429.2 226C429 225.5 428.4 225.2 427.8 225.1C427.2 225 426.5 225 425.8 225C424.4 225.1 423 225.3 421.6 225.6C418.9 226.2 416.1 227 413.4 227.8Z" fill="#FC6A5A"/>
<path d="M424.9 225.001C425.9 224.401 427 223.801 428 223.201C429.1 222.701 430.2 222.201 431.4 221.801C432.6 221.501 433.8 221.201 435.1 221.301C435.4 221.301 435.7 221.401 436.1 221.501C436.3 221.601 436.4 221.701 436.6 221.701C436.7 221.801 436.9 221.901 437 222.001C437.2 222.301 437.4 222.601 437.6 222.901C437.7 223.201 437.8 223.501 437.8 223.901V224.101L437.6 224.201C435.7 225.401 433.7 226.601 431.7 227.701C429.7 228.801 427.7 229.901 425.6 230.901C424.6 231.401 423.5 231.901 422.5 232.301C422 232.501 421.4 232.701 420.9 232.901C420.4 233.101 419.8 233.301 419.3 233.501C418.8 233.701 418.2 233.801 417.6 234.001C417.3 234.101 417 234.101 416.7 234.101C416.4 234.101 416.1 234.201 415.8 234.101L414.1 233.901L413.2 233.801H413H412.9C412.9 233.801 412.9 233.801 412.9 233.701H413H413.2H414.1H415.8C416.1 233.701 416.3 233.701 416.6 233.601C416.9 233.601 417.1 233.501 417.4 233.401C417.9 233.201 418.5 233.101 419 232.901C419.5 232.701 420.1 232.501 420.6 232.301C421.1 232.101 421.6 231.801 422.1 231.601C422.6 231.401 423.1 231.101 423.6 230.801C424.1 230.501 424.6 230.301 425.1 230.001C427.1 229.001 429.1 227.901 431.1 226.701C433.1 225.601 435.1 224.401 437 223.301L436.8 223.701C436.8 223.401 436.7 223.201 436.6 222.901C436.5 222.701 436.4 222.401 436.2 222.301C436.1 222.201 436 222.101 435.9 222.101C435.8 222.001 435.7 222.001 435.6 221.901C435.4 221.801 435.1 221.701 434.8 221.701C433.7 221.501 432.5 221.701 431.4 222.001C429.2 223.001 427 223.901 424.9 225.001Z" fill="#FC6A5A"/>
<path d="M436.1 221.9C436.7 221.2 437.3 220.6 437.9 219.9V220.1C437.6 219.9 437.2 219.7 436.8 219.6C436.4 219.5 436 219.5 435.5 219.4C434.6 219.4 433.8 219.5 432.9 219.6C432.4 219.7 432.1 219.8 431.6 219.9C431.2 220 430.7 220.1 430.3 220.3C429.9 220.4 429.5 220.6 429.1 220.7L427.9 221.2C427.5 221.4 427.1 221.6 426.7 221.7C426.3 221.9 425.9 222.1 425.5 222.3C424.7 222.7 423.9 223.1 423.1 223.5C422.7 223.7 422.3 223.9 421.9 224.1L420.7 224.8C419.9 225.2 419.2 225.8 418.4 226.2C419.1 225.6 419.8 225 420.5 224.4L421.6 223.6C422 223.3 422.4 223.1 422.7 222.8C423.5 222.3 424.3 221.9 425.1 221.4C425.9 221 426.7 220.6 427.6 220.2L428.9 219.7C429.3 219.5 429.8 219.4 430.2 219.3C430.6 219.1 431.1 219 431.5 218.9C431.9 218.8 432.4 218.7 432.9 218.7C433.8 218.6 434.7 218.5 435.7 218.6C436.2 218.7 436.6 218.7 437.1 218.9C437.5 219.1 438 219.3 438.3 219.7L438.4 219.8L438.3 219.9C437.5 220.7 436.8 221.3 436.1 221.9Z" fill="#FC6A5A"/>
<path d="M432.5 218.8C432.5 218.8 432.8 218.5 433.2 218.1C433.6 217.7 434.3 217 434.9 216.2C435 216.1 435.1 216 435.1 215.9C435.1 216 435.2 216 435.2 216C435.2 216 435.2 216 435.3 216H435.2C434.9 215.9 434.6 215.9 434.3 215.9C433.7 215.9 433.1 216 432.5 216C431.9 216.1 431.2 216.3 430.5 216.4C429.8 216.6 429.2 216.8 428.5 217C427.8 217.2 427.2 217.6 426.6 217.8C426.3 217.9 426 218.1 425.7 218.2C425.4 218.3 425.1 218.5 424.8 218.7C424.2 219 423.7 219.3 423.1 219.6C422.8 219.7 422.6 219.9 422.3 220C422.1 220.2 421.8 220.3 421.6 220.5C419.8 221.7 418.6 222.4 418.6 222.4C418.6 222.4 419.6 221.4 421.3 220.1C421.5 219.9 421.7 219.7 421.9 219.6C422.1 219.4 422.4 219.3 422.6 219.1C423.1 218.8 423.7 218.4 424.2 218.1C424.5 217.9 424.8 217.7 425.1 217.6C425.4 217.5 425.7 217.3 426.1 217.2C426.8 216.9 427.4 216.6 428.1 216.3C428.8 216.1 429.5 215.9 430.2 215.7C430.9 215.5 431.6 215.5 432.3 215.3C433 215.3 433.6 215.2 434.3 215.3C434.6 215.3 434.9 215.4 435.2 215.4H435.3C435.4 215.4 435.4 215.4 435.4 215.5C435.5 215.5 435.5 215.6 435.5 215.7C435.5 216 435.4 216 435.4 216.1C435.3 216.2 435.2 216.3 435.1 216.4C434.3 217.2 433.6 217.7 433.1 218.1C432.8 218.6 432.5 218.8 432.5 218.8Z" fill="#FC6A5A"/>
<path d="M269.9 145.101C269.9 145.101 295.6 129.701 307.8 147.701C320 165.701 328.4 203.601 328.4 203.601C328.4 203.601 307.2 228.001 280.2 225.501C253.2 222.901 269.9 145.101 269.9 145.101Z" fill="#6F96BD"/>
<path opacity="0.5" d="M270 187.501C282.4 183.601 288.9 169.301 301.4 165.701C302.7 177.701 308.8 198.701 302.1 209.601C298.3 215.901 293.3 220.901 287.9 225.501C285.4 225.701 282.8 225.701 280.1 225.501C267.7 224.301 264.5 207.101 264.7 189.001C266.5 188.501 268.3 188.001 270 187.501Z" fill="#4E7FA8"/>
<path d="M160.2 210.901C160.2 210.901 148.2 296.501 130.8 294.101C88.0003 288.201 38.0003 206.801 55.5003 205.101C63.4003 204.301 110.4 240.301 110.4 240.301C110.4 240.301 126.2 154.701 145.6 157.601C164.9 160.501 160.2 210.901 160.2 210.901Z" fill="#FFAC9D"/>
<path d="M137 233.601C142.6 236.401 148.5 238.401 154.4 239.601C158 223.801 160.1 210.901 160.1 210.901C160.1 210.901 164.8 160.501 145.4 157.601C132.4 155.601 120.9 193.801 114.9 218.901C121.8 224.501 129.1 229.701 137 233.601Z" fill="#F19C7C"/>
<path d="M65.8004 211.299C65.8004 211.299 60.4004 203.899 51.8004 204.599C43.2004 205.299 35.1004 207.999 35.1004 207.999C35.1004 207.999 20.7004 205.399 19.6004 208.299C18.5004 211.199 31.6004 214.099 31.6004 214.099H37.0004L37.8004 213.399C37.8004 213.399 24.5004 218.199 19.6004 220.799C19.6004 220.799 9.20041 212.499 3.00042 213.999C3.00042 213.999 10.9004 222.599 13.7004 224.099C16.5004 225.599 14.4004 222.299 14.4004 222.299C14.4004 222.299 5.40041 214.799 0.300415 218.499L10.6004 225.499L5.40041 219.999C5.40041 219.999 1.50042 218.599 1.00042 222.299C1.00042 222.299 19.2004 233.099 22.5004 232.499C25.7004 231.899 49.8004 230.899 61.9004 225.899C73.9004 220.799 72.9004 215.899 65.8004 211.299Z" fill="#FFAC9D"/>
<path d="M31.6005 214H36.7005C39.7005 209.9 45.8005 204.4 56.7005 205C55.2005 204.6 53.5005 204.4 51.7005 204.5C43.1005 205.2 35.0005 207.9 35.0005 207.9C35.0005 207.9 20.6005 205.3 19.5005 208.2C18.6005 211.1 31.6005 214 31.6005 214Z" fill="#F19C7C"/>
<path d="M24.9004 226C22.2004 225.1 19.5004 224.4 16.7004 223.8C15.3004 223.5 13.9004 223.3 12.5004 223.2C11.8004 223.2 11.1004 223.2 10.5004 223.3C9.90041 223.4 9.20042 223.7 9.10042 224.2L8.90041 223.7C11.2004 225 13.6004 226.3 16.0004 227.5C18.4004 228.7 20.8004 229.9 23.3004 230.9C23.9004 231.1 24.5004 231.3 25.2004 231.5C25.5004 231.6 25.8004 231.6 26.1004 231.7C26.4004 231.7 26.8004 231.8 27.1004 231.8C28.4004 231.9 29.7004 231.8 31.1004 231.7C33.8004 231.5 36.4004 231.1 39.1004 230.6C37.8004 231 36.5004 231.3 35.2004 231.6C33.9004 231.9 32.6004 232.1 31.2004 232.3C29.9004 232.5 28.5004 232.6 27.1004 232.6C26.7004 232.6 26.4004 232.6 26.1004 232.5C25.7004 232.5 25.4004 232.4 25.1004 232.3C24.4004 232.1 23.8004 231.9 23.1004 231.7C20.5004 230.8 18.1004 229.6 15.7004 228.4C13.3004 227.2 11.0004 225.8 8.60042 224.5L8.30042 224.3L8.40041 224C8.60041 223.6 8.90042 223.3 9.30042 223.1C9.70042 222.9 10.0004 222.8 10.4004 222.7C11.2004 222.6 11.9004 222.6 12.6004 222.6C14.0004 222.7 15.5004 223 16.8004 223.3C18.2004 223.6 19.6004 224.1 20.9004 224.5C22.2004 225 23.6004 225.5 24.9004 226Z" fill="#FC6A5A"/>
<path d="M13.4004 223.199C11.3004 222.099 9.00037 221.199 6.70037 220.599C5.60037 220.299 4.40037 220.099 3.30037 220.299C3.00037 220.299 2.80037 220.399 2.50037 220.499C2.40037 220.599 2.30037 220.599 2.20037 220.699C2.10037 220.799 2.00037 220.899 1.90037 220.899C1.70037 221.099 1.60037 221.299 1.50037 221.499C1.40037 221.699 1.40037 221.999 1.30037 222.299L1.10037 221.899C3.00037 223.099 5.00037 224.199 7.00037 225.299C9.00037 226.399 11.0004 227.499 13.0004 228.599C13.5004 228.899 14.0004 229.099 14.5004 229.399C15.0004 229.699 15.5004 229.899 16.0004 230.199C16.5004 230.499 17.0004 230.699 17.5004 230.899C18.0004 231.099 18.5004 231.299 19.1004 231.499C19.6004 231.699 20.2004 231.899 20.7004 231.999C21.0004 232.099 21.2004 232.099 21.5004 232.199C21.8004 232.199 22.0004 232.299 22.3004 232.299H24.0004H24.9004H25.1004H25.2004C25.2004 232.399 25.2004 232.299 25.1004 232.299H25.2004C25.2004 232.399 25.2004 232.299 25.2004 232.399H25.1004H24.9004L24.0004 232.499L22.3004 232.699C22.0004 232.699 21.7004 232.699 21.4004 232.699C21.1004 232.699 20.8004 232.699 20.5004 232.599C19.9004 232.499 19.4004 232.299 18.8004 232.099C18.2004 231.899 17.7004 231.699 17.2004 231.499C16.7004 231.299 16.1004 231.099 15.6004 230.899C14.5004 230.499 13.5004 229.999 12.5004 229.499C10.4004 228.499 8.40037 227.399 6.40037 226.299C4.40037 225.199 2.50037 223.999 0.500366 222.799L0.600366 222.499V222.299C0.700366 221.999 0.700366 221.599 0.800366 221.299C0.900366 220.999 1.10037 220.699 1.40037 220.399C1.50037 220.299 1.70037 220.199 1.80037 220.099C1.90037 219.999 2.10037 219.899 2.30037 219.899C2.60037 219.799 2.90037 219.699 3.30037 219.699C4.60037 219.599 5.80037 219.899 7.00037 220.199C8.20037 220.599 9.30037 220.999 10.4004 221.599C11.4004 221.899 12.4004 222.499 13.4004 223.199Z" fill="#FC6A5A"/>
<path d="M2.20037 220.098C1.50037 219.498 0.800366 218.898 0.200366 218.398L0.000366211 218.198L0.100366 218.098C0.400366 217.598 0.900366 217.498 1.30037 217.298C1.80037 217.098 2.20037 217.098 2.70037 216.998C3.60037 216.898 4.60037 216.998 5.50037 217.098C5.90037 217.198 6.40037 217.198 6.90037 217.298C7.30037 217.398 7.80037 217.498 8.20037 217.698C8.60037 217.898 9.10037 217.998 9.50037 218.098L10.8004 218.598C11.6004 218.998 12.5004 219.298 13.3004 219.798C14.1004 220.198 14.9004 220.698 15.7004 221.198C16.1004 221.398 16.5004 221.698 16.8004 221.998L17.9004 222.798C18.6004 223.298 19.3004 223.998 20.0004 224.598C19.2004 224.098 18.5004 223.598 17.7004 223.198L16.5004 222.498C16.1004 222.298 15.7004 222.098 15.3004 221.898C14.5004 221.498 13.7004 221.098 12.9004 220.698C12.5004 220.498 12.1004 220.298 11.7004 220.098C11.3004 219.898 10.9004 219.698 10.5004 219.598L9.30037 219.098C8.90037 218.898 8.50037 218.798 8.10037 218.698C7.70037 218.498 7.30037 218.398 6.80037 218.298C6.40037 218.198 6.00037 218.098 5.50037 217.998C4.60037 217.898 3.80037 217.798 2.90037 217.798C2.50037 217.798 2.00037 217.898 1.60037 217.998C1.20037 218.098 0.800366 218.298 0.500366 218.498V218.298C1.00037 218.698 1.60037 219.398 2.20037 220.098Z" fill="#FC6A5A"/>
<path d="M5.80034 216.999C5.80034 216.999 5.50034 216.799 5.00034 216.399C4.50034 215.999 3.80034 215.499 3.00034 214.699C2.90034 214.599 2.80034 214.499 2.70034 214.399C2.70034 214.299 2.60034 214.299 2.60034 213.999C2.60034 213.899 2.70034 213.799 2.70034 213.799C2.70034 213.799 2.80034 213.799 2.80034 213.699H2.90034C3.20034 213.599 3.50034 213.599 3.80034 213.599C4.50034 213.499 5.10034 213.599 5.80034 213.599C6.50034 213.699 7.20034 213.799 7.90034 213.999C8.60034 214.199 9.30034 214.399 10.0003 214.599C10.7003 214.799 11.3003 215.199 12.0003 215.499C12.3003 215.699 12.6003 215.799 13.0003 215.899C13.3003 216.099 13.6003 216.299 13.9003 216.399C14.5003 216.799 15.0003 217.099 15.5003 217.399C15.8003 217.599 16.0003 217.699 16.2003 217.899C16.4003 218.099 16.6003 218.299 16.8003 218.399C18.4003 219.799 19.5003 220.699 19.5003 220.699C19.5003 220.699 18.3003 219.899 16.5003 218.799C16.3003 218.699 16.1003 218.499 15.8003 218.299C15.6003 218.199 15.3003 217.999 15.0003 217.899C14.5003 217.599 13.9003 217.299 13.3003 216.999C13.0003 216.799 12.7003 216.699 12.4003 216.499C12.1003 216.399 11.8003 216.199 11.5003 216.099C10.9003 215.799 10.2003 215.499 9.60034 215.299C8.90034 215.099 8.30034 214.899 7.60034 214.699C6.90034 214.599 6.30034 214.399 5.60034 214.299C5.00034 214.299 4.30034 214.099 3.80034 214.199C3.50034 214.199 3.20034 214.199 2.90034 214.299H2.80034C2.80034 214.299 2.80034 214.299 2.90034 214.299L3.00034 214.199C3.00034 214.299 3.10034 214.399 3.20034 214.499C3.90034 215.299 4.50034 215.899 4.90034 216.399C5.60034 216.699 5.80034 216.999 5.80034 216.999Z" fill="#FC6A5A"/>
<path d="M170.9 149.002C170.9 149.002 145.2 133.602 133 151.602C120.8 169.602 112.4 207.502 112.4 207.502C112.4 207.502 133.6 231.902 160.6 229.402C187.6 226.802 170.9 149.002 170.9 149.002Z" fill="#6F96BD"/>
<path opacity="0.5" d="M170.8 191.302C158.4 187.402 146.4 182.102 133.9 178.602C132.6 190.602 132 202.602 138.7 213.502C142.5 219.802 147.5 224.802 152.9 229.402C155.4 229.602 158 229.602 160.7 229.402C173.1 228.202 176.3 211.002 176.1 192.902C174.2 192.402 172.5 191.902 170.8 191.302Z" fill="#4E7FA8"/>
<path d="M196.6 134.201C196.6 134.201 192.7 147.701 168.3 145.101C143.9 142.501 134.2 143.201 129.1 166.301C124 189.401 152.9 202.901 152.9 202.901C152.9 202.901 147.1 283.901 154.8 332.801C154.8 332.801 218.5 352.701 288.5 324.401C288.5 324.401 280.8 245.301 285.9 221.501C291 197.701 313.2 181.101 309.4 159.201C305.5 137.301 286.6 129.201 265.4 142.701C244.2 156.201 244.2 137.201 244.2 137.201L196.6 134.201Z" fill="#6F96BD"/>
<path d="M219.4 161.201C232.1 161.801 245 151.601 252.6 140.601C244.2 139.301 244.2 137.401 244.2 137.401L196.6 134.201C196.6 134.201 194.6 141.001 184.8 144.001C191.5 155.501 206.7 160.601 219.4 161.201Z" fill="#F19C7C"/>
<path d="M260.6 102.201C260.6 102.201 265.4 88.4011 272 93.1011C278.6 97.8011 270.5 119.801 260.9 120.301C251.3 120.901 260.6 102.201 260.6 102.201Z" fill="#FFAC9D"/>
<path d="M204.1 93.2016C204.1 93.2016 206.9 79.0016 199.1 80.0016C191.3 81.0016 187.2 103.902 194.9 108.802C202.7 113.702 204.1 93.2016 204.1 93.2016Z" fill="#F19C7C"/>
<path d="M237.1 57.7007C237.1 57.7007 268.6 58.3007 261.5 101.401C254.4 144.501 236.4 158.001 216.5 150.901C196.6 143.801 185 131.001 197.2 91.7007C209.5 52.6007 237.1 57.7007 237.1 57.7007Z" fill="#FFAC9D"/>
<path d="M270.9 59.8004C270.9 59.8004 271.6 39.8004 256 32.3004L259.5 40.2004C256.7 35.4004 251 29.0004 240.4 27.0004L242.8 33.0004C242.8 33.0004 236 23.6004 218.9 25.3004L219.4 29.9004C219.4 29.9004 215.8 27.5004 215.1 23.9004C215.1 23.9004 209 32.9004 210.9 41.9004C209.6 38.1004 208.7 33.2004 210.5 29.0004C210.5 29.0004 206.9 36.3004 207.8 44.2004C206.1 44.3004 202.8 44.8004 200.7 48.3004C197.8 53.1004 197.8 72.4004 197.6 85.7004C197.6 85.7004 194 108.1 190.6 113.9C187.2 119.7 180.5 134.6 190.1 145L191.5 142.1C191.5 142.1 195.8 157.3 216.1 161.9L217.3 159.2L218.5 163.1C218.5 163.1 241.4 162.4 247.4 152L245.2 156.3C245.2 156.3 257.7 150 258.5 140.6C259.2 131.2 260.8 102.5 264.3 96.7004C270.9 85.4004 283.2 68.5004 270.9 59.8004ZM228.7 144.7C219.3 144.9 223.6 133.6 223.6 133.6L217.1 132.9C217.1 132.9 216.6 140.9 212.8 140.6C208.2 140.3 203 138 205.3 126.9C206.7 119.9 208 118 208 118C208 118 217.9 123.1 222.5 117.8C222.5 117.8 225.6 123.8 238.2 124.1C238.2 123.9 239.6 144.4 228.7 144.7ZM244.2 137.4C238.2 136.2 247.8 125.6 244.2 118.8C240.6 112 224.2 112 224.2 112C224.2 112 213.8 107.9 207.8 108.9C201.4 109.9 206.8 127 198.9 126.5C190.9 126 204.2 81.2004 204.2 81.2004C209.7 79.0004 213.1 65.8004 213.1 65.8004C238.7 73.5004 254.1 71.1004 254.1 71.1004C252.9 86.8004 259.4 91.8004 259.4 91.8004C256.7 113.8 250.2 138.6 244.2 137.4Z" fill="#965450"/>
<path d="M270.9 59.8C270.9 59.8 271.6 39.8 256 32.3L259.5 40.2C257.4 36.7 253.8 32.3 247.9 29.5C248.8 31 249.5 32.6 250.1 34.1C252.7 40.1 253.7 47 251.3 53.2C249.1 58.9 243.5 64.4 238.3 67.5C235.9 68.9 233.7 69.7 231.5 70.1C245.8 72.4 254 71.1 254 71.1C252.8 86.8 259.3 91.8 259.3 91.8C256.6 113.7 250.1 138.6 244.1 137.4C238.1 136.2 247.7 125.6 244.1 118.8C243.3 117.3 241.9 116.2 240.3 115.3C241.3 117.7 241.6 120.6 241.6 123.2C241.6 128.1 240.6 133 238.9 137.6C237.1 142.4 235.1 148.4 231.3 152C224.2 158.8 214.2 158.8 205.5 155.1C202.3 153.7 198.7 151.8 195.3 149.4C198.8 153.9 205.1 159.3 215.8 161.8L217 159.1L218.2 163C218.2 163 241.1 162.3 247.1 151.9L244.9 156.2C244.9 156.2 257.4 149.9 258.2 140.5C258.9 131.1 260.5 102.4 264 96.6C270.9 85.4 283.2 68.5 270.9 59.8Z" fill="#76413B"/>
<path d="M226.6 89.502C226.7 90.402 226.8 91.402 226.7 92.302C226.7 93.202 226.5 94.202 226.4 95.102C226.2 96.002 226 96.902 225.7 97.802C225.4 98.702 225.1 99.602 224.7 100.402C224.3 101.302 223.9 102.102 223.4 102.902C222.9 103.702 222.4 104.502 221.8 105.202C221.2 105.902 220.6 106.602 219.9 107.302C219.2 108.002 218.5 108.602 217.8 109.202L217.7 108.202C219.9 109.502 222.1 110.702 224.2 112.102C221.8 111.202 219.5 110.302 217.2 109.302L216.4 109.002L217 108.302L217.9 107.302C218.2 107.002 218.5 106.602 218.7 106.302C219.3 105.602 219.8 104.902 220.3 104.202C221.3 102.802 222.2 101.202 223 99.702C223.4 98.9019 223.8 98.102 224.1 97.302C224.4 96.502 224.8 95.702 225.1 94.802C225.7 93.002 226.2 91.302 226.6 89.502Z" fill="#FC6A5A"/>
<path d="M211.9 126.301C211.9 126.301 213.2 125.401 215.3 124.501C216.4 124.101 217.6 123.601 219.1 123.301C220.5 123.001 222.1 122.801 223.7 122.801C224.5 122.801 225.3 122.901 226.1 123.001C226.9 123.101 227.6 123.301 228.3 123.601C229.7 124.101 231 124.801 231.9 125.601C232.4 126.001 232.7 126.401 233 126.801C233.3 127.201 233.5 127.501 233.7 127.801C234 128.401 234.2 128.701 234.2 128.701C234.2 128.701 233.9 128.401 233.4 128.001C233.1 127.801 232.8 127.501 232.5 127.301C232.1 127.001 231.7 126.801 231.2 126.501C230.7 126.201 230.2 126.001 229.6 125.801C229 125.601 228.4 125.401 227.8 125.201C227.2 125.001 226.5 125.001 225.8 124.901C225.1 124.801 224.4 124.801 223.7 124.801C222.3 124.801 220.8 124.901 219.4 125.001C218 125.201 216.8 125.401 215.7 125.601C213.4 126.001 211.9 126.301 211.9 126.301Z" fill="#FC6A5A"/>
<path d="M234.3 87.8012C234.3 87.8012 234.4 87.4012 234.8 86.8012C235.2 86.2012 235.8 85.4012 236.7 84.6012C237.2 84.2012 237.7 83.8012 238.3 83.4012C238.9 83.0012 239.6 82.7012 240.3 82.4012C240.7 82.2012 241.1 82.2012 241.5 82.0012C241.9 81.9012 242.3 81.8012 242.7 81.8012C243.1 81.8012 243.6 81.7012 244 81.7012C244.4 81.7012 244.9 81.8012 245.3 81.8012C246.2 81.8012 247 82.2012 247.8 82.4012C248.2 82.5012 248.6 82.8012 248.9 83.0012C249.3 83.2012 249.6 83.4012 250 83.6012C250.6 84.1012 251.2 84.6012 251.7 85.1012C252.2 85.6012 252.6 86.2012 252.9 86.7012C253.1 86.9012 253.2 87.2012 253.4 87.4012C253.5 87.6012 253.6 87.9012 253.7 88.1012C253.9 88.5012 254 88.9012 254.2 89.3012C254.4 89.9012 254.5 90.3012 254.5 90.3012C254.5 90.3012 254.1 90.1012 253.6 89.7012C253.3 89.5012 253 89.3012 252.6 89.0012C252.4 88.9012 252.2 88.7012 252 88.6012C251.8 88.5012 251.6 88.3012 251.3 88.2012C250.8 87.9012 250.4 87.6012 249.9 87.3012C249.4 87.1012 248.8 86.8012 248.3 86.5012C247.7 86.3012 247.2 86.1012 246.6 85.9012C246 85.8012 245.4 85.6012 244.8 85.6012C244.5 85.6012 244.2 85.5012 243.9 85.5012C243.6 85.5012 243.3 85.5012 243 85.5012C242.4 85.5012 241.8 85.6012 241.2 85.7012C240.6 85.8012 240 85.9012 239.4 86.1012C238.8 86.2012 238.3 86.4012 237.8 86.6012C236.8 86.9012 235.9 87.2012 235.3 87.5012C234.7 87.6012 234.3 87.8012 234.3 87.8012Z" fill="#76413B"/>
<path d="M226.3 86.6012C226.3 86.6012 226 86.4012 225.4 86.0012C224.9 85.6012 224.1 85.1012 223.2 84.4012C221.5 83.2012 219.2 81.7012 217 81.3012C216.4 81.2012 215.9 81.1012 215.3 81.1012C214.7 81.1012 214.2 81.2012 213.6 81.3012C213 81.4012 212.5 81.6012 212 81.8012C211.7 81.9012 211.5 82.0012 211.2 82.1012C210.9 82.2012 210.7 82.3012 210.5 82.4012C210 82.6012 209.6 82.8012 209.2 83.0012C208.8 83.2012 208.4 83.4012 208.1 83.5012C207.5 83.8012 207.1 84.0012 207.1 84.0012C207.1 84.0012 207.2 83.6012 207.5 83.0012C207.6 82.7012 207.8 82.3012 208.1 81.9012C208.3 81.5012 208.7 81.1012 209.1 80.6012C209.5 80.1012 210 79.7012 210.5 79.2012C211.1 78.8012 211.7 78.4012 212.5 78.0012C212.9 77.8012 213.3 77.7012 213.7 77.6012L214.3 77.4012L215 77.3012C215.9 77.2012 216.8 77.3012 217.7 77.4012C218.6 77.6012 219.4 77.9012 220.2 78.3012C221 78.7012 221.6 79.2012 222.2 79.7012C223.4 80.7012 224.2 81.8012 224.8 82.9012C226.2 84.9012 226.3 86.6012 226.3 86.6012Z" fill="#76413B"/>
<path d="M219.301 94.8019C218.801 97.2019 217.5 99.0019 216.4 98.8019C215.3 98.6019 214.901 96.4019 215.501 93.9019C216.001 91.5019 217.3 89.7019 218.4 89.9019C219.5 90.1019 219.901 92.3019 219.301 94.8019Z" fill="#352C38"/>
<path d="M248.301 99.5011C247.801 101.901 246.5 103.701 245.4 103.501C244.3 103.301 243.901 101.101 244.501 98.6011C245.001 96.2011 246.3 94.4011 247.4 94.6011C248.4 94.9011 248.801 97.1011 248.301 99.5011Z" fill="#352C38"/>
<path d="M263.3 117.601C263.7 117.101 264.1 116.601 264.4 116.001C264.5 115.701 264.7 115.401 264.7 115.201C264.7 115.101 264.8 114.901 264.8 114.801C264.8 114.701 264.8 114.501 264.8 114.401C264.8 114.301 264.8 114.201 264.7 114.101C264.6 114.001 264.6 113.901 264.5 113.801C264.4 113.701 264.3 113.601 264.2 113.501L263.9 113.301C263.8 113.201 263.6 113.201 263.5 113.101C263.4 113.001 263.2 113.001 263.1 112.901L262.2 112.701L261.6 112.601L261.7 112.001C261.9 110.701 262 109.501 262.3 108.301C262.6 107.101 262.8 105.801 263.2 104.601C263.6 103.401 264 102.201 264.5 101.001C265 99.8013 265.7 98.7013 266.5 97.6013C266.9 97.1013 267.5 96.6013 268.1 96.2013C268.8 95.8013 269.5 95.6013 270.5 95.7013C270.7 95.7013 271.4 95.9013 271.7 96.2013C272.1 96.5013 272.3 96.9013 272.5 97.3013C272.8 98.1013 272.8 98.8013 272.8 99.4013C272.7 100.701 272.4 102.001 272 103.201C271.6 104.401 271.1 105.601 270.5 106.701C270.8 105.501 271 104.301 271.2 103.001C271.4 101.801 271.5 100.601 271.5 99.4013C271.5 98.8013 271.4 98.3013 271.2 97.9013C271.1 97.7013 271 97.6013 270.8 97.5013C270.6 97.4013 270.7 97.4013 270.3 97.4013C270.3 97.4013 270.2 97.4013 270.4 97.4013H270.3H270.1C270 97.4013 269.9 97.5013 269.8 97.5013C269.6 97.6013 269.4 97.7013 269.2 97.8013C268.8 98.1013 268.4 98.5013 268.1 98.9013C267.4 99.8013 266.9 100.801 266.4 101.901C265.9 103.001 265.5 104.101 265.1 105.301C264.7 106.501 264.4 107.601 264.1 108.801C263.8 110.001 263.5 111.201 263.2 112.401L262.7 111.601L263.7 112.001C263.9 112.101 264 112.201 264.2 112.301C264.4 112.401 264.5 112.501 264.7 112.601L265.1 113.001C265.2 113.101 265.4 113.301 265.5 113.501C265.6 113.601 265.7 113.901 265.7 114.101C265.8 114.301 265.8 114.501 265.8 114.701C265.8 114.901 265.7 115.101 265.7 115.301C265.7 115.501 265.6 115.601 265.5 115.801C265.4 116.001 265.3 116.101 265.2 116.301C265.1 116.401 265 116.601 264.9 116.701C264.4 116.801 263.9 117.201 263.3 117.601Z" fill="#FC6A5A"/>
</g>
<defs>
<clipPath id="clip0_619_35258">
<rect width="438.3" height="473.3" fill="white" transform="translate(0.000366211 0.5)"/>
</clipPath>
</defs>
</svg>
