<svg width="553" height="520" viewBox="0 0 553 520" fill="none" xmlns="http://www.w3.org/2000/svg">
<path d="M526.173 143.723C530.43 105.018 522.271 73.8182 506.363 49.9377C468.329 -7.12173 375.514 -0.922863 324.504 1.44839C248.606 4.95859 146.81 9.68241 74.5709 87.4482C-22.9865 192.474 -23.4533 384.228 67.6252 469.724C95.6134 495.994 189.53 526.783 378.689 518.68C434.516 516.29 483.024 520.902 531.588 432.531C580.077 344.346 511.908 273.657 526.173 143.723Z" fill="#F4F7FA"/>
<path d="M205.679 356.09L268.321 233.961C273.624 223.617 268.583 216.037 256.092 213.927L242.07 211.556C223.977 208.494 217.256 199.793 222.988 189.244L233.126 175.408L254.579 176.024L251.237 184.613C249.053 190.196 253.478 194.584 263.318 196.059L276.481 198.038C297.561 201.212 308.073 213.106 301.762 230.414L273.251 344.757L205.679 356.09Z" fill="#AABBCC"/>
<path d="M242.779 168.967L219.739 178.545L265.82 177.014L242.779 168.967Z" fill="#AABBCC"/>
<path d="M194.814 407.828L404.903 278.249C421.446 269.063 441.013 265.441 456.062 267.961L472.792 270.762C494.114 274.347 515.455 270.501 528.824 261.8L547.514 251.381L525.146 244.1L513.364 250.336C505.522 254.481 494.077 255.937 483.117 253.865L468.329 251.064C444.411 246.527 408.712 244.025 378.539 257.543L133.031 386.244L194.814 407.828Z" fill="#AABBCC"/>
<path d="M510.302 241.99L542.641 239.357L552.667 256.572L510.302 241.99Z" fill="#AABBCC"/>
<path d="M175.059 502.771H6.60718L468.217 98.5938L494.749 102.011L175.059 502.771Z" fill="#F7A121"/>
<path d="M447.455 101.246L493.162 89.2402L505.728 108.733L447.455 101.246Z" fill="#F7A121"/>
<path d="M457.033 473.401C450.125 477.509 442.936 481.131 435.785 484.772C443.16 482.345 474.397 470.824 474.901 487.573C474.92 488.17 474.901 488.749 474.827 489.29C473.352 501.296 452.048 501.09 443.72 501.072C433.545 501.053 423.574 501.221 413.548 500.624C412.39 500.549 411.232 500.474 410.075 500.381C408.749 500.269 407.405 500.157 406.06 500.008C404.399 499.84 402.718 499.634 401.057 499.41L400.272 498.981C398.984 499.186 397.733 499.354 396.463 499.522C395.231 499.69 393.999 499.84 392.785 499.97C389.536 500.325 386.325 500.586 383.132 500.736C371.985 501.277 361.044 500.512 349.617 498.122C341.813 496.497 333.989 493.865 327.604 488.954C321.965 484.622 311.453 470.918 317.913 463.468C318.324 462.982 318.81 462.553 319.351 462.124C327.604 455.887 342.261 468.304 348.553 472.747C350.084 473.83 356.414 479.619 358.561 478.909C360.521 478.274 358.057 475.81 357.142 474.689C350.289 466.306 340.3 461.059 333.541 452.545C327.753 445.263 321.685 429.729 330.255 422.018C331.207 421.159 332.197 420.561 333.187 420.225C343.418 416.566 355.069 437.832 358.505 443.9C362.388 450.771 365.525 458.277 370.044 464.775C371.817 467.314 374.226 470.507 376.224 466.698C378.539 462.31 376.803 454.487 375.962 449.969C374.543 442.332 371.873 435.032 368.979 427.843C364.274 416.192 358.187 402.413 370.006 392.834C373.012 390.389 377.195 388.409 381.676 387.065C390.75 384.395 401.057 385.777 405.22 394.552C408.506 401.461 406.751 410.124 405.276 417.257C403.465 426.013 400.87 434.677 399.992 443.602C399.507 448.606 398.965 456.149 402.55 460.312C404.959 463.132 407.479 462.31 409.067 459.211C411.606 454.226 410.859 447.205 411.008 441.828C411.214 434.247 411.55 426.387 414.593 419.329C417.917 411.618 429.698 401.274 439.109 403.944C441.013 404.467 442.824 405.531 444.43 407.267C454.083 417.574 435.916 439.979 430.819 448.55C427.364 454.375 422.547 461.209 421.39 468.042C420.699 472.038 422.454 472.542 425.516 470.264C430.912 466.25 434.945 459.864 439.109 454.692C444.486 448.045 450.087 441.249 457.126 436.301C464.109 431.428 477.441 428.347 482.146 436.077C483.079 437.627 483.677 439.587 483.808 442.052C484.629 456.41 467.545 467.146 457.033 473.401Z" fill="#F7A121"/>
<path opacity="0.5" d="M439.109 403.981C438.324 404.933 437.466 405.904 436.513 406.893C421.707 422.465 421.315 432.212 415.079 457.922C411.046 474.54 407.834 490.671 406.061 500.007C404.399 499.839 402.718 499.634 401.057 499.41L400.272 498.98C398.984 499.186 397.733 499.354 396.464 499.522C397.024 493.864 396.482 484.398 388.192 478.199C375.72 468.845 381.172 449.371 384.308 437.682C387.427 425.994 384.308 418.918 377.68 406.856C374.002 400.135 377.662 392.479 381.639 387.139C390.713 384.469 401.019 385.851 405.183 394.626C408.469 401.535 406.714 410.198 405.239 417.331C403.428 426.088 400.833 434.751 399.955 443.676C399.47 448.68 398.928 456.223 402.513 460.387C404.922 463.206 407.442 462.385 409.029 459.285C411.569 454.3 410.822 447.279 410.971 441.902C411.176 434.322 411.513 426.461 414.556 419.403C417.898 411.655 429.698 401.329 439.109 403.981Z" fill="white"/>
<path opacity="0.5" d="M457.033 473.402C450.125 477.509 442.936 481.132 435.785 484.773C443.16 482.345 474.397 470.825 474.902 487.573C474.92 488.171 474.901 488.75 474.827 489.291C471.429 489.608 467.844 489.291 465.006 487.443C457.407 482.476 456.678 489.198 449.378 491.532C442.077 493.865 429.362 490.654 422.491 495.621C419.093 498.085 415.9 499.672 413.548 500.624C412.39 500.55 411.232 500.475 410.075 500.382C411.382 496.143 415.807 484.418 425.609 479.358C437.69 473.122 444.318 471.18 448.202 458.315C451.6 447.075 465.454 436.713 482.165 436.115C483.098 437.665 483.696 439.625 483.826 442.09C484.629 456.411 467.545 467.147 457.033 473.402Z" fill="white"/>
<path opacity="0.5" d="M392.785 499.988C389.537 500.343 386.325 500.604 383.132 500.754C382.628 498.457 386.269 495.432 376.168 493.285C359.663 489.775 350.234 496.347 343.885 480.719C339.106 468.975 327.305 461.338 317.876 463.504C318.287 463.019 318.773 462.589 319.314 462.16C327.567 455.924 342.224 468.34 348.516 472.784C350.047 473.867 356.376 479.655 358.524 478.945C360.484 478.311 358.02 475.846 357.105 474.726C350.252 466.342 340.263 461.096 333.504 452.582C327.716 445.3 321.648 429.765 330.218 422.054C331.17 421.195 332.16 420.598 333.149 420.262C332.72 427.637 333.84 439.923 344.165 447.13C359.644 457.94 362.277 466.996 362.874 472.84C363.416 478.292 387.688 482.736 392.785 499.988Z" fill="white"/>
<path d="M114.882 209.484C114.882 209.484 74.5147 225.542 79.1638 251.532C83.813 277.522 111.54 301.198 118.747 295.167C124.554 284.73 124.33 287.045 120.427 280.547C116.544 274.05 97.275 255.938 118.859 245.725C140.443 235.512 114.882 209.484 114.882 209.484Z" fill="url(#paint0_linear_521_10771)"/>
<path d="M107.488 461.321C107.227 459.92 102.746 458.669 100.505 460.536C99.4035 461.47 98.638 463.337 99.2728 464.196C99.4968 464.513 98.5446 465.055 99.4595 465.055C102.503 465.074 107.731 462.702 107.488 461.321Z" fill="url(#paint1_linear_521_10771)"/>
<path d="M102.764 461.826L98.1339 461.173C100.281 458.596 99.889 450.381 99.889 450.381L104.8 451.482C104.8 451.482 104.239 453.742 103.287 457.065C102.97 458.185 102.82 459.978 102.764 461.826Z" fill="white"/>
<path d="M103.175 461.247C103.175 461.247 97.611 459.959 96.9948 461.061C96.3974 462.162 95.9306 465.131 99.4594 465.019C103.007 464.944 103.492 462.2 103.175 461.247Z" fill="url(#paint2_linear_521_10771)"/>
<path d="M170.971 466.55C170.522 465.206 165.892 464.59 163.95 466.756C162.979 467.82 162.494 469.799 163.241 470.546C163.521 470.826 162.643 471.498 163.558 471.367C166.564 470.957 171.4 467.876 170.971 466.55Z" fill="url(#paint3_linear_521_10771)"/>
<path d="M166.359 467.707H161.691C163.446 464.85 161.915 456.766 161.915 456.766L166.938 457.158C166.938 457.158 166.695 459.473 166.228 462.89C166.06 464.085 166.153 465.859 166.359 467.707Z" fill="white"/>
<path d="M178.476 291.021C180.642 298.172 183.723 309.711 185.721 324.181C191.397 365.464 179.335 366.771 181.595 412.515C182.323 427.116 168.935 460.78 167.759 461.527C167.18 461.583 166.564 461.621 165.911 461.602C164.753 461.565 163.11 461.397 161.206 460.818C159.096 460.444 151.459 439.775 153.214 427.471C154.465 418.77 154.11 409.434 153.382 390.745C153.27 387.72 145.522 331.855 145.522 331.855C143.169 352.524 140.462 370.094 138.109 383.724C130.566 427.49 106.032 453.965 104.744 454.395C104.482 454.488 102.186 455.328 100.3 454.096C99.4596 453.536 99.1796 452.827 99.1796 452.827C98.5261 452.304 99.3663 409.136 106.853 376.648C117.72 329.484 112.978 318.449 116.432 297.388C119.419 279.165 178.476 291.021 178.476 291.021Z" fill="url(#paint4_linear_521_10771)"/>
<path d="M181.389 298.154C174.873 301.515 158.069 307.49 138.053 304.521C128.904 303.158 121.585 300.114 116.45 297.407C121.641 281.686 117.571 273.265 115.647 265.498C112.921 254.444 112.865 255.266 110.606 246.491C106.891 232.002 106.275 217.177 108.832 214.152C114.172 207.841 122.799 206.217 129.427 205.731C131.387 205.582 133.161 205.526 134.636 205.488C138.333 205.376 144.476 204.648 150.824 205.078C156.874 205.488 163.091 206.945 167.554 210.94C167.703 211.071 165.836 212.079 166.769 213.162C167.628 214.171 170.56 217.681 173.211 222.405C175.153 225.84 176.871 229.854 178.644 235.811C181.725 246.322 182.621 255.285 182.92 259.187C184.544 281.144 182.883 291.264 181.389 298.154Z" fill="url(#paint5_linear_521_10771)"/>
<path d="M166.695 467.072C166.695 467.072 161 466.586 160.552 467.763C160.104 468.939 160.067 471.926 163.539 471.348C167.031 470.769 167.143 467.968 166.695 467.072Z" fill="url(#paint6_linear_521_10771)"/>
<path d="M139.341 195.182C138.314 194.566 137.549 195.891 138.016 197.03C138.501 198.188 140.107 198.897 141.096 198.207C142.086 197.534 140.723 196.003 139.341 195.182Z" fill="url(#paint7_linear_521_10771)"/>
<path d="M152.019 206.683C152.019 208.663 146.866 210.287 140.499 210.287C134.132 210.287 128.979 208.681 128.979 206.683C128.979 206.347 129.128 206.03 129.408 205.731C131.369 205.582 133.142 205.526 134.617 205.488C138.314 205.376 144.457 204.648 150.805 205.078C151.571 205.563 152.019 206.105 152.019 206.683Z" fill="url(#paint8_linear_521_10771)"/>
<path d="M143.58 205.151C142.908 203.658 142.254 202.145 141.582 200.652C142.161 200.073 145.988 197.216 145.895 193.986C145.783 189.598 142.291 186.256 141.619 185.584C138.763 182.765 138.146 182.447 137.101 182.13L135.663 181.756C135.663 181.756 135.588 181.756 135.495 181.738C134.636 181.7 131.948 182.429 131.443 182.709C129.838 183.605 130.155 191.167 133.721 200.894C133.759 201.287 133.815 201.697 133.871 202.089C134.188 204.61 134.618 207 135.122 209.278C135.122 209.297 141.694 209.577 143.58 205.151Z" fill="url(#paint9_linear_521_10771)"/>
<path d="M139.976 180.262C140.91 183.324 138.856 184.65 138.277 185.397C138.203 185.49 137.792 186.088 137.549 186.947C137.512 187.059 137.493 187.189 137.493 187.357C137.418 189.486 141.19 190.83 140.854 191.876C140.611 192.641 138.277 192.436 138.184 193.052C138.109 193.631 140.163 194.154 140.088 194.845C140.032 195.367 138.837 195.274 138.371 196.189C138.146 196.637 138.333 196.898 138.296 198.075C138.277 198.747 138.203 199.494 138.109 199.942C137.605 202.07 134.804 203.639 134.001 203.097C133.777 202.948 133.871 202.742 133.497 202.108C133.497 202.108 133.161 201.529 132.489 200.95C131.556 200.11 129.838 199.83 127.989 199.214C124.572 198.056 123.284 196.581 122.873 196.058C122.724 195.871 122.631 195.741 122.556 195.629C121.137 193.594 120.11 190.27 120.502 187.936C121.156 183.997 125.487 184.445 127.597 180.094C128.774 177.667 129.464 175.128 132.284 174.138C134.487 173.354 136.503 174.138 137.81 176.005C138.669 177.219 139.528 178.806 139.976 180.262Z" fill="#26264F"/>
<path d="M139.509 191.484C138.445 190.681 137.418 192.063 137.829 193.388C138.24 194.733 139.958 195.722 141.115 195.069C142.291 194.434 140.947 192.567 139.509 191.484Z" fill="url(#paint10_linear_521_10771)"/>
<path d="M149.312 175.595L144.569 172.663C144.569 172.663 140.163 170.666 135.346 173.84C130.529 177.014 132.582 179.31 132.582 179.31L136.13 177.705C136.13 177.705 138.408 176.659 141.955 178.227C146.026 179.404 148.882 179.124 148.882 179.124L149.312 175.595Z" fill="url(#paint11_linear_521_10771)"/>
<path d="M171.512 171.469C161.448 168.09 152.075 168.799 147.258 169.453C146.324 170.629 144.999 172.645 144.887 175.203C144.364 186.294 167.516 190.122 168.132 200.428C168.543 207.299 158.405 208.308 152.859 223.17C150.189 230.302 151.291 233.383 153.083 235.138C155.903 237.92 161.056 237.976 162.624 238.014C176.217 238.2 196.756 224.701 198.548 206.608C200.023 191.429 187.999 177.014 171.512 171.469Z" fill="url(#paint12_linear_521_10771)"/>
<path d="M223.026 35.1315V110.787C223.026 121.804 213.896 130.56 202.525 130.318L159.712 129.384L153.998 129.272L133.479 153.787C131.91 154.964 128.195 154.982 126.944 153.47L123.919 149.437L108.086 128.264L106.611 128.226L65.646 127.349C61.2022 127.256 57.3933 125.612 54.2192 122.905C50.0181 119.358 47.6469 113.999 47.7216 108.061L48.7111 36.4758C48.8605 26.188 56.9825 17.7486 67.2517 17.5992L75.9338 17.4685L202.898 15.7321C205.979 15.6947 208.743 16.3109 211.375 17.4498C218.358 20.5119 223.026 27.2149 223.026 35.1315Z" fill="url(#paint13_linear_521_10771)"/>
<path d="M220.057 33.0591L220.039 108.528C220.039 119.526 210.591 128.245 199.276 128.021L158.76 127.2L150.694 127.032L130.249 150.408C128.755 152.107 126.122 152.07 124.685 150.315L123.938 149.418L106.611 128.208L104.874 126.098L62.584 125.239C59.4472 125.164 56.6652 124.324 54.0886 122.905C48.1885 119.638 44.3982 113.271 44.4916 106.026L45.4998 34.5902C45.6492 24.321 53.8645 15.8816 64.1151 15.7322L74.0855 15.5828L199.295 13.7157C203.869 13.641 208.295 15.06 211.693 17.4686C216.659 20.9788 220.057 26.6362 220.057 33.0591Z" fill="#F7A121"/>
<path opacity="0.3" d="M159.787 129.385L154.036 129.255L133.497 153.789C131.929 154.965 128.195 154.984 126.962 153.471L123.938 149.438L106.629 128.228L65.6647 127.35C61.2209 127.257 57.2999 125.614 54.1258 122.906C48.2257 119.639 44.4354 113.272 44.5288 106.028L45.537 34.5913C45.6864 24.3221 53.9018 15.8827 64.1523 15.7334L74.1227 15.584C74.7389 16.1815 75.299 16.8163 75.8778 17.4698C82.4501 24.8636 87.0059 35.5249 85.9977 50.9474C82.9543 97.1027 114.21 105.337 142.067 114.579C150.638 117.417 155.716 122.104 158.666 127.182C159.077 127.929 159.45 128.657 159.787 129.385Z" fill="#F7A121"/>
<path d="M117.683 85.8054V81.5484C117.683 77.8702 118.448 74.6587 119.979 71.9327C121.51 69.188 124.33 66.2753 128.456 63.1385C132.452 60.1885 135.103 57.7612 136.41 55.9128C137.698 54.0456 138.371 51.9731 138.371 49.6952C138.389 47.1373 137.456 45.1955 135.626 43.9071C133.796 42.6188 131.238 42.0213 127.952 42.096C122.295 42.2454 115.909 44.2992 108.851 48.2389L102.914 35.8225C111.054 30.7439 119.83 27.9805 129.259 27.6071C137.157 27.2897 143.505 29.0261 148.248 32.7977C153.027 36.6067 155.417 41.8159 155.361 48.4256C155.324 52.832 154.316 56.6409 152.318 59.8337C150.32 63.0265 146.586 66.6114 141.115 70.551C137.4 73.333 135.066 75.4242 134.076 76.8619C133.105 78.2996 132.601 80.1854 132.601 82.5193L132.582 86.0108L117.683 85.8054ZM115.872 105.336C115.872 102.143 116.712 99.7342 118.374 98.1472C120.035 96.5414 122.481 95.7759 125.693 95.8506C128.811 95.9253 131.238 96.8402 132.956 98.5766C134.674 100.332 135.533 102.796 135.533 105.97C135.514 109.033 134.636 111.404 132.881 113.103C131.126 114.783 128.718 115.567 125.637 115.437C122.5 115.306 120.091 114.354 118.392 112.599C116.712 110.844 115.872 108.416 115.872 105.336Z" fill="white"/>
<defs>
<linearGradient id="paint0_linear_521_10771" x1="122.701" y1="-12.7344" x2="93.9039" y2="359.882" gradientUnits="userSpaceOnUse">
<stop stop-color="#AA80F9"/>
<stop offset="0.9964" stop-color="#6165D7"/>
</linearGradient>
<linearGradient id="paint1_linear_521_10771" x1="109.986" y1="457.297" x2="100.082" y2="463.879" gradientUnits="userSpaceOnUse">
<stop stop-color="#444B8C"/>
<stop offset="0.9964" stop-color="#26264F"/>
</linearGradient>
<linearGradient id="paint2_linear_521_10771" x1="109.243" y1="456.179" x2="99.3383" y2="462.761" gradientUnits="userSpaceOnUse">
<stop stop-color="#444B8C"/>
<stop offset="0.9964" stop-color="#26264F"/>
</linearGradient>
<linearGradient id="paint3_linear_521_10771" x1="172.874" y1="462.211" x2="163.989" y2="470.115" gradientUnits="userSpaceOnUse">
<stop stop-color="#444B8C"/>
<stop offset="0.9964" stop-color="#26264F"/>
</linearGradient>
<linearGradient id="paint4_linear_521_10771" x1="165.044" y1="477.229" x2="107.106" y2="243.303" gradientUnits="userSpaceOnUse">
<stop stop-color="#444B8C"/>
<stop offset="0.9964" stop-color="#26264F"/>
</linearGradient>
<linearGradient id="paint5_linear_521_10771" x1="165.39" y1="-7.38567" x2="142.527" y2="288.449" gradientUnits="userSpaceOnUse">
<stop stop-color="#AA80F9"/>
<stop offset="0.9964" stop-color="#6165D7"/>
</linearGradient>
<linearGradient id="paint6_linear_521_10771" x1="171.98" y1="461.206" x2="163.095" y2="469.11" gradientUnits="userSpaceOnUse">
<stop stop-color="#444B8C"/>
<stop offset="0.9964" stop-color="#26264F"/>
</linearGradient>
<linearGradient id="paint7_linear_521_10771" x1="137.701" y1="191.052" x2="144.908" y2="213.145" gradientUnits="userSpaceOnUse">
<stop stop-color="#FFC444"/>
<stop offset="0.9964" stop-color="#F36F56"/>
</linearGradient>
<linearGradient id="paint8_linear_521_10771" x1="137.662" y1="181.165" x2="149.256" y2="285.742" gradientUnits="userSpaceOnUse">
<stop stop-color="#FFC444"/>
<stop offset="0.9964" stop-color="#F36F56"/>
</linearGradient>
<linearGradient id="paint9_linear_521_10771" x1="137.18" y1="181.218" x2="148.775" y2="285.795" gradientUnits="userSpaceOnUse">
<stop stop-color="#FFC444"/>
<stop offset="0.9964" stop-color="#F36F56"/>
</linearGradient>
<linearGradient id="paint10_linear_521_10771" x1="138.261" y1="181.098" x2="149.856" y2="285.674" gradientUnits="userSpaceOnUse">
<stop stop-color="#FFC444"/>
<stop offset="0.9964" stop-color="#F36F56"/>
</linearGradient>
<linearGradient id="paint11_linear_521_10771" x1="134.014" y1="174.706" x2="147.913" y2="178.552" gradientUnits="userSpaceOnUse">
<stop stop-color="#FFC444"/>
<stop offset="0.9964" stop-color="#F36F56"/>
</linearGradient>
<linearGradient id="paint12_linear_521_10771" x1="186.889" y1="-5.72444" x2="164.026" y2="290.111" gradientUnits="userSpaceOnUse">
<stop stop-color="#AA80F9"/>
<stop offset="0.9964" stop-color="#6165D7"/>
</linearGradient>
<linearGradient id="paint13_linear_521_10771" x1="92.7185" y1="3.26697" x2="163.671" y2="117.34" gradientUnits="userSpaceOnUse">
<stop stop-color="#F7A121"/>
<stop offset="1" stop-color="#E68900"/>
</linearGradient>
</defs>
</svg>
