<svg width="24" height="25" viewBox="0 0 24 25" fill="none" xmlns="http://www.w3.org/2000/svg">
<path d="M11.1156 3.69807C11.4908 2.98692 12.5092 2.98692 12.8844 3.69807L14.827 7.37995C14.9717 7.6542 15.2355 7.84581 15.541 7.89867L19.643 8.60842C20.4352 8.7455 20.75 9.71414 20.1896 10.2907L17.2882 13.276C17.0721 13.4984 16.9713 13.8084 17.0155 14.1153L17.6081 18.2358C17.7225 19.0317 16.8985 19.6304 16.177 19.2756L12.4412 17.4387C12.163 17.3019 11.837 17.3019 11.5588 17.4387L7.82301 19.2756C7.10146 19.6304 6.27749 19.0317 6.39194 18.2358L6.98451 14.1153C7.02865 13.8084 6.92792 13.4984 6.71181 13.276L3.81042 10.2907C3.25002 9.71414 3.56475 8.7455 4.35704 8.60842L8.45901 7.89867C8.76455 7.84581 9.02827 7.6542 9.17297 7.37995L11.1156 3.69807Z" stroke="#292929" stroke-width="2" stroke-linecap="round" stroke-linejoin="round"/>
</svg>
