<svg width="67" height="49" viewBox="0 0 67 49" fill="none" xmlns="http://www.w3.org/2000/svg">
<path d="M5.39023 0.130096C4.53315 0.453883 3.54274 2.12996 3.00944 4.206C2.59042 5.7678 2.72375 8.96757 3.238 10.377C3.77129 11.8436 4.41887 12.9482 4.72361 12.9482C4.87598 12.9482 5.12358 12.7006 5.295 12.3959C5.88543 11.2341 7.50437 9.51991 8.91379 8.58664C10.628 7.44387 12.4564 6.85343 14.6848 6.70106C15.5419 6.66297 16.2466 6.52965 16.2466 6.45346C16.2466 5.95826 15.2181 4.49169 14.0563 3.31083C12.3231 1.57761 10.228 0.491976 7.99957 0.206282C6.39968 -0.022274 5.84734 -0.0413198 5.39023 0.130096Z" fill="#F7A121"/>
<path d="M57.4819 0.454081C55.7867 0.873099 53.7298 1.95874 52.5108 3.10151C51.1776 4.33952 50.2443 5.57753 50.3967 5.95846C50.4538 6.12987 50.949 6.28224 51.7489 6.35843C53.1965 6.5108 55.3106 7.17742 56.4724 7.86308C58.1675 8.85349 59.8246 10.6248 60.7197 12.3771C61.3483 13.6151 61.672 13.5198 62.5482 11.7866C63.291 10.282 63.8624 8.05355 63.8624 6.58698C63.8624 4.32048 62.472 0.549312 61.5197 0.30171C60.815 0.111247 58.4913 0.206479 57.4819 0.454081Z" fill="#F7A121"/>
<path d="M16.4369 17.8429C14.5704 18.1666 11.6754 19.4427 9.38982 20.9664C6.59002 22.7949 2.3046 26.7184 0.476157 29.0992L0 29.7087L0.533296 30.4705C1.84749 32.3752 7.78993 37.651 10.2088 39.0794C12.8182 40.6032 15.7513 41.6507 17.675 41.7459C19.8462 41.8412 19.8843 41.8221 20.8176 40.4317C21.7318 39.0604 25.1792 35.4607 26.4363 34.5464C26.8553 34.2417 27.2362 33.956 27.2933 33.8798C27.3505 33.8227 27.9219 33.4418 28.5694 33.0418C29.2361 32.6418 29.8646 32.2037 29.9789 32.0704C30.3026 31.6705 30.2265 28.1088 29.8646 26.7565C28.4171 21.3283 23.5031 17.6143 17.9607 17.7286C17.3893 17.7476 16.7036 17.8048 16.4369 17.8429Z" fill="#F7A121"/>
<path d="M46.1493 17.9188C40.2259 19.0616 35.8643 24.6612 36.3215 30.5655C36.4357 32.0702 36.2643 31.8797 38.9689 33.7462C41.3687 35.4223 43.8828 37.9174 45.7684 40.4886C46.5303 41.5552 46.7017 41.6885 47.4445 41.7838C50.13 42.1457 54.3964 40.5648 58.1485 37.8031C59.577 36.7556 59.7674 36.6032 60.9864 35.5366C63.9195 32.9844 66.3384 30.337 66.3384 29.6894C66.3384 29.0799 62.5672 25.1754 59.9579 23.0613C57.52 21.0995 54.6249 19.2901 52.7965 18.6044C50.6824 17.8045 48.1111 17.5379 46.1493 17.9188Z" fill="#F7A121"/>
<path d="M32.4929 39.7271C31.6549 40.1462 29.8645 41.9746 29.4646 42.8126C28.6265 44.603 28.3599 46.9457 28.9693 47.479C29.4265 47.898 30.8549 48.4884 32.112 48.7551C32.95 48.9455 33.4262 48.9455 34.3214 48.7741C35.9784 48.4503 37.5402 47.7075 37.8068 47.1361C38.1116 46.4505 37.7497 44.2601 37.1212 42.965C36.5307 41.746 35.1975 40.3366 34.1499 39.8033C33.2548 39.3462 33.2738 39.3462 32.4929 39.7271Z" fill="#F7A121"/>
</svg>
