<svg width="261" height="85" viewBox="0 0 261 85" fill="none" xmlns="http://www.w3.org/2000/svg">
<path d="M7.26848 0.153891C6.11272 0.590511 4.77717 2.85067 4.05803 5.65018C3.49299 7.75624 3.67277 12.0711 4.36623 13.9717C5.08537 15.9493 5.95862 17.439 6.36955 17.439C6.57502 17.439 6.90891 17.1051 7.14006 16.6941C7.93626 15.1274 10.1194 12.8159 12.02 11.5574C14.3315 10.0164 16.7971 9.22021 19.8021 9.01474C20.9579 8.96337 21.9082 8.78359 21.9082 8.68085C21.9082 8.01308 20.5212 6.03544 18.9545 4.44305C16.6173 2.10585 13.7921 0.64188 10.7871 0.256624C8.62971 -0.0515785 7.88489 -0.0772629 7.26848 0.153891Z" fill="#F7A121"/>
<path d="M77.5133 0.59054C75.2274 1.15558 72.4536 2.61955 70.8099 4.16056C69.012 5.83 67.7535 7.49943 67.959 8.01311C68.036 8.24426 68.7038 8.44973 69.7825 8.55246C71.7345 8.75793 74.5853 9.65686 76.152 10.5815C78.4379 11.917 80.6724 14.3056 81.8795 16.6685C82.727 18.3379 83.1637 18.2095 84.3451 15.8723C85.3468 13.8433 86.1173 10.8383 86.1173 8.86067C86.1173 5.80432 84.2424 0.718958 82.9582 0.385071C82.0079 0.128235 78.8745 0.256653 77.5133 0.59054Z" fill="#F7A121"/>
<path d="M22.165 24.0397C19.648 24.4763 15.7441 26.1971 12.662 28.2518C8.88654 30.7174 3.10772 36.0083 0.642091 39.2187L0 40.0406L0.719142 41.0679C2.49131 43.6363 10.5046 50.7507 13.7664 52.6769C17.2851 54.7316 21.2404 56.1442 23.8344 56.2726C26.7623 56.401 26.8137 56.3754 28.0722 54.5005C29.305 52.6512 33.9538 47.797 35.6489 46.5642C36.2139 46.1533 36.7276 45.768 36.8046 45.6653C36.8817 45.5882 37.6522 45.0746 38.5255 44.5352C39.4244 43.9959 40.2719 43.4051 40.426 43.2254C40.8627 42.686 40.7599 37.8832 40.2719 36.0596C38.32 28.7398 31.6936 23.7315 24.2197 23.8856C23.4492 23.9113 22.5245 23.9883 22.165 24.0397Z" fill="#F7A121"/>
<path d="M62.2314 24.1425C54.2438 25.6835 48.3623 33.2345 48.9787 41.1964C49.1328 43.2254 48.9016 42.9686 52.5487 45.4856C55.7848 47.7457 59.1751 51.1103 61.7177 54.5776C62.7451 56.0158 62.9762 56.1956 63.9779 56.324C67.5993 56.812 73.3524 54.6803 78.4121 50.9562C80.3384 49.5436 80.5952 49.3381 82.239 47.8998C86.1943 44.4582 89.4561 40.8882 89.4561 40.0149C89.4561 39.1931 84.3707 33.9279 80.8521 31.077C77.5646 28.4316 73.6606 25.9917 71.195 25.0671C68.3441 23.9884 64.8768 23.6288 62.2314 24.1425Z" fill="#F7A121"/>
<path d="M43.8163 53.5502C42.6862 54.1152 40.272 56.5808 39.7326 57.7109C38.6025 60.1252 38.243 63.2843 39.0648 64.0034C39.6812 64.5684 41.6075 65.3646 43.3026 65.7242C44.4327 65.981 45.0748 65.981 46.2819 65.7499C48.5164 65.3133 50.6225 64.3116 50.982 63.5411C51.393 62.6165 50.905 59.6629 50.0574 57.9164C49.2612 56.2726 47.4634 54.372 46.0508 53.6529C44.8437 53.0365 44.8693 53.0365 43.8163 53.5502Z" fill="#F7A121"/>
<path d="M115.904 26.6986C117.173 26.6986 117.934 25.9374 117.934 25.1762C117.934 22.6388 104.232 22.6388 104.232 11.4744C104.232 5.63838 109.814 0.0561523 118.695 0.0561523C127.83 0.0561523 132.397 5.63838 132.397 5.63838L127.576 13.2505C127.576 13.2505 124.531 10.4594 120.979 10.4594C119.71 10.4594 118.949 11.2206 118.949 11.9818C118.949 14.5192 132.651 14.5192 132.651 25.6837C132.651 31.5196 127.069 37.1019 118.188 37.1019C107.023 37.1019 102.456 31.0122 102.456 31.0122L107.277 23.4C107.277 23.4 110.829 26.6986 115.904 26.6986Z" fill="#292929"/>
<path d="M171.727 8.68324C176.801 8.68324 180.861 12.743 180.861 22.1313V36.3407H168.682V22.1313C168.682 20.1014 167.667 19.0865 166.652 19.0865C165.637 19.0865 164.622 20.1014 164.622 22.1313V36.3407H152.442V22.1313C152.442 20.1014 151.427 19.0865 150.413 19.0865C149.398 19.0865 148.383 20.1014 148.383 22.1313V36.3407H136.203V9.44445H147.875L148.89 12.4893C148.89 12.4893 150.92 8.68324 155.995 8.68324C161.07 8.68324 163.607 13.5043 163.607 13.5043C163.607 13.5043 166.652 8.68324 171.727 8.68324Z" fill="#292929"/>
<path d="M197.34 8.68324C205.967 8.68324 212.311 15.0267 212.311 22.8926C212.311 27.2568 212.311 32.3824 212.311 36.3407H200.639L199.624 33.2958C199.624 33.2958 197.594 37.1019 193.027 37.1019C187.444 37.1019 183.892 33.5495 183.892 28.7285C183.892 23.9075 187.444 20.3552 196.072 20.3552H200.131C200.131 20.3552 199.624 17.5641 195.564 17.5641C193.027 17.5641 190.997 19.594 190.997 19.594L186.683 12.743C186.683 12.743 190.489 8.68324 197.34 8.68324ZM197.594 28.9823C198.863 28.9823 200.131 27.7136 200.131 24.6687C197.34 24.6687 196.072 25.9374 196.072 27.4598C196.072 28.2211 196.833 28.9823 197.594 28.9823Z" fill="#292929"/>
<path d="M229.571 12.4893C229.571 12.4893 231.601 8.68324 235.661 8.68324C237.69 8.68324 239.213 9.44445 239.213 9.44445L237.183 20.6089C237.183 20.6089 235.153 19.594 233.631 19.594C231.093 19.594 229.063 21.6239 229.063 25.1762V36.3407H216.884V9.44445H228.556L229.571 12.4893Z" fill="#292929"/>
<path d="M243.297 19.594H239.744V9.44445H243.297V0.817365H255.476V9.44445H260.043V19.594H255.476V23.9075C255.476 25.9374 256.491 26.9524 258.013 26.9524C259.028 26.9524 260.043 26.6986 260.043 26.6986V36.8481C260.043 36.8481 258.013 37.3556 255.476 37.3556C247.864 37.3556 243.297 32.7883 243.297 23.9075V19.594Z" fill="#292929"/>
<path d="M121.233 68.7975V65.7527C121.233 65.7527 119.203 69.5587 114.128 69.5587C108.546 69.5587 103.471 64.484 103.471 55.8569C103.471 47.2298 108.546 42.155 114.128 42.155C119.203 42.155 121.233 45.9611 121.233 45.9611L122.248 42.9162H133.412V68.7975C133.412 77.1709 126.561 84.0218 117.934 84.0218C110.576 84.0218 106.516 79.7082 106.516 79.7082L111.591 71.5886C111.591 71.5886 113.621 73.6185 116.158 73.6185C119.203 73.6185 121.233 71.5886 121.233 68.7975ZM116.158 55.8569C116.158 57.8868 117.427 59.1555 118.949 59.1555C120.471 59.1555 121.74 57.8868 121.74 55.8569C121.74 53.827 120.471 52.5583 118.949 52.5583C117.427 52.5583 116.158 53.827 116.158 55.8569Z" fill="#292929"/>
<path d="M147.617 70.5737C142.543 70.5737 138.483 66.5139 138.483 57.1256V42.9162H150.662V57.1256C150.662 59.1555 151.677 60.1704 152.692 60.1704C153.707 60.1704 154.722 59.1555 154.722 57.1256V42.9162H166.902V69.8125H155.23L154.215 66.7676C154.215 66.7676 152.185 70.5737 147.617 70.5737Z" fill="#292929"/>
<path d="M184.671 45.9611C184.671 45.9611 186.701 42.155 190.761 42.155C192.791 42.155 194.313 42.9162 194.313 42.9162L192.283 54.0807C192.283 54.0807 190.253 53.0658 188.731 53.0658C186.194 53.0658 184.164 55.0957 184.164 58.648V69.8125H171.984V42.9162H183.656L184.671 45.9611Z" fill="#292929"/>
<path d="M205.501 70.5737C200.427 70.5737 196.367 66.5139 196.367 57.1256V42.9162H208.546V57.1256C208.546 59.1555 209.561 60.1704 210.576 60.1704C211.591 60.1704 212.606 59.1555 212.606 57.1256V42.9162H224.786V69.8125H213.114L212.099 66.7676C212.099 66.7676 210.069 70.5737 205.501 70.5737Z" fill="#292929"/>
</svg>
